<svg version="1.1" id="Ebene_1" xmlns="http://www.w3.org/2000/svg" xmlns:xlink="http://www.w3.org/1999/xlink" x="0px" y="0px"
	 width="105.674px" height="9px" viewBox="0 0 105.674 9" enable-background="new 0 0 105.674 9" xml:space="preserve">
<g>
	<polygon fill="#DD7500" points="9.946,0 6.7,5.3 5.946,0 2.042,0 1.718,1.382 2.6,1.382 1.198,7.436 0.324,7.436 0,8.816 
		3.119,8.816 3.429,7.436 2.597,7.436 3.998,1.382 4.222,1.382 5.235,8.816 6.181,8.816 10.725,1.382 10.896,1.382 9.49,7.436 
		8.66,7.436 8.348,8.816 12.189,8.816 12.52,7.436 11.604,7.436 12.992,1.382 13.672,1.382 13.997,0 	"/>
	<path fill="#DD7500" d="M17.501,2.518c-1.001,0-1.843,0.375-2.523,1.131S13.958,5.3,13.958,6.336c0,0.809,0.253,1.455,0.761,1.939
		C15.226,8.76,15.907,9,16.761,9c1.225,0,2.147-0.461,2.763-1.387l-1.388-0.629c-0.309,0.529-0.727,0.795-1.255,0.795
		c-0.343,0-0.619-0.113-0.828-0.336c-0.21-0.225-0.314-0.529-0.314-0.92c0-0.125,0.013-0.26,0.039-0.398h4.362
		c0.058-0.307,0.088-0.596,0.088-0.876c0-0.837-0.26-1.501-0.78-1.995C18.928,2.764,18.28,2.518,17.501,2.518z M18.434,5.123h-2.428
		c0.305-0.918,0.781-1.375,1.434-1.375c0.287,0,0.528,0.098,0.725,0.299c0.197,0.203,0.294,0.467,0.294,0.796
		C18.458,4.937,18.451,5.029,18.434,5.123z"/>
	<path fill="#DD7500" d="M27.598,4.741c0.051-0.229,0.076-0.446,0.076-0.651c0-0.461-0.122-0.824-0.368-1.091
		c-0.246-0.265-0.583-0.399-1.01-0.399c-0.334,0-0.658,0.07-0.968,0.213c-0.312,0.141-0.692,0.361-1.14,0.656L24.996,0h-2.708
		l-0.31,1.311h0.83l-1.426,6.194h-0.679l-0.298,1.311h3.378l0.298-1.311h-0.82l0.62-2.714c0.588-0.463,1.057-0.696,1.404-0.696
		c0.283,0,0.425,0.173,0.425,0.519c0,0.085-0.011,0.175-0.032,0.267l-0.913,3.935h2.713l0.304-1.311h-0.839L27.598,4.741z"/>
	<path fill="#DD7500" d="M33.033,2.834c-0.253,0.143-0.707,0.694-1.362,1.648l-0.026-0.026l0.411-1.781H29.57l-0.298,1.311h0.831
		l-0.818,3.519h-0.741l-0.297,1.311h3.581l0.305-1.311h-0.966l0.299-1.312c0.297-1.297,0.95-1.946,1.964-1.946
		c0.179,0,0.37,0.021,0.572,0.062l0.375-1.634c-0.208-0.038-0.392-0.058-0.552-0.058C33.549,2.618,33.284,2.689,33.033,2.834z"/>
	<polygon fill="#DD7500" points="43.655,0 43.333,1.382 44.15,1.382 43.659,3.52 41.113,3.52 41.605,1.382 42.502,1.382 42.824,0 
		38.996,0 38.673,1.382 39.504,1.382 38.103,7.436 37.286,7.436 36.955,8.816 40.79,8.816 41.114,7.436 40.211,7.436 40.796,4.901 
		43.337,4.901 42.76,7.436 41.919,7.436 41.609,8.816 45.436,8.816 45.76,7.436 44.87,7.436 46.258,1.382 46.928,1.382 47.249,0 	
		"/>
	<path fill="#DD7500" d="M53.212,4.958c0.049-0.201,0.071-0.389,0.071-0.566c0-0.583-0.233-1.04-0.701-1.375
		c-0.465-0.333-1.117-0.5-1.954-0.5c-0.901,0-1.785,0.232-2.656,0.696l0.931,0.927c0.549-0.28,1.029-0.418,1.441-0.418
		c0.303,0,0.557,0.068,0.762,0.201c0.205,0.137,0.307,0.314,0.307,0.534c0,0.047-0.006,0.094-0.019,0.146l-0.1,0.508
		c-0.534-0.119-0.91-0.177-1.13-0.177c-0.98,0-1.744,0.207-2.293,0.625c-0.551,0.415-0.824,0.961-0.824,1.633
		c0,0.492,0.173,0.896,0.521,1.221c0.348,0.322,0.79,0.482,1.322,0.482c0.51,0,1.065-0.191,1.661-0.57l-0.113,0.492h2.823
		l0.378-1.311h-1.025L53.212,4.958z M50.81,7.182c-0.461,0.354-0.893,0.533-1.298,0.533c-0.199,0-0.369-0.066-0.51-0.201
		C48.86,7.383,48.79,7.215,48.79,7.021c0-0.285,0.122-0.521,0.365-0.707c0.246-0.186,0.566-0.279,0.957-0.279
		c0.316,0,0.625,0.043,0.929,0.125L50.81,7.182z"/>
	<path fill="#DD7500" d="M61.187,4.583c0.041-0.186,0.064-0.365,0.064-0.538c0-0.436-0.135-0.786-0.397-1.048
		c-0.265-0.265-0.604-0.397-1.016-0.397c-0.292,0-0.572,0.051-0.841,0.154c-0.267,0.1-0.692,0.331-1.275,0.689l0.175-0.767h-2.802
		l-0.296,1.311h0.926l-0.817,3.519h-0.679L53.93,8.816h3.335l0.306-1.311h-0.782l0.63-2.752c0.628-0.45,1.096-0.677,1.405-0.677
		c0.301,0,0.45,0.175,0.45,0.525c0,0.098-0.013,0.209-0.045,0.335L58.33,8.816h2.714l0.303-1.311h-0.839L61.187,4.583z"/>
	<path fill="#DD7500" d="M70.108,0h-2.804l-0.316,1.311h0.938l-0.519,2.244c-0.444-0.692-1.034-1.038-1.77-1.038
		c-0.865,0-1.617,0.382-2.255,1.145c-0.639,0.764-0.957,1.672-0.957,2.724c0,0.758,0.194,1.367,0.583,1.828
		c0.388,0.461,0.896,0.691,1.526,0.691c0.677,0,1.283-0.291,1.819-0.869l0.025,0.025l-0.177,0.754h2.714l0.296-1.311h-0.831
		L70.108,0z M66.517,6.656c-0.324,0.506-0.711,0.76-1.164,0.76c-0.318,0-0.563-0.098-0.741-0.291
		c-0.177-0.195-0.267-0.459-0.267-0.787c0-0.636,0.16-1.187,0.476-1.655s0.688-0.703,1.11-0.703c0.312,0,0.568,0.111,0.769,0.335
		c0.201,0.22,0.301,0.519,0.301,0.89C67.001,5.664,66.839,6.148,66.517,6.656z"/>
	<polygon fill="#DD7500" points="77.569,2.676 77.276,3.936 78.051,3.936 76.717,6.807 76.017,2.676 74.708,2.676 72.786,6.807 
		72.265,3.936 73.006,3.936 73.29,2.676 70.183,2.676 69.884,3.987 70.627,3.987 71.473,8.895 73.187,8.895 74.846,5.377 
		75.491,8.895 77.15,8.895 79.501,3.987 80.171,3.987 80.473,2.676 	"/>
	<path fill="#DD7500" d="M83.761,2.518c-1.001,0-1.843,0.375-2.521,1.131c-0.681,0.756-1.021,1.651-1.021,2.687
		c0,0.809,0.254,1.455,0.76,1.939C81.487,8.76,82.166,9,83.02,9c1.226,0,2.146-0.461,2.763-1.387l-1.388-0.629
		c-0.308,0.529-0.726,0.795-1.255,0.795c-0.342,0-0.617-0.113-0.827-0.336C82.104,7.219,82,6.914,82,6.523
		c0-0.125,0.013-0.26,0.038-0.398h4.36c0.06-0.307,0.09-0.596,0.09-0.876c0-0.837-0.261-1.501-0.78-1.995
		C85.187,2.764,84.538,2.518,83.761,2.518z M84.694,5.123h-2.428c0.303-0.918,0.782-1.375,1.433-1.375
		c0.286,0,0.527,0.098,0.726,0.299c0.197,0.203,0.295,0.467,0.295,0.796C84.72,4.937,84.711,5.029,84.694,5.123z"/>
	<path fill="#DD7500" d="M92.793,2.676c-0.207-0.038-0.389-0.058-0.551-0.058c-0.275,0-0.541,0.071-0.79,0.216
		C91.2,2.977,90.745,3.528,90.09,4.482l-0.026-0.026l0.412-1.781h-2.487l-0.297,1.311h0.829l-0.816,3.519h-0.743l-0.296,1.311h3.581
		l0.303-1.311h-0.965l0.299-1.312c0.296-1.297,0.952-1.946,1.966-1.946c0.177,0,0.367,0.021,0.57,0.062L92.793,2.676z"/>
	<polygon fill="#DD7500" points="96.523,3.69 97.54,3.69 95.364,5.597 96.656,0 93.922,0 93.611,1.312 94.467,1.312 93.041,7.506 
		92.364,7.506 92.065,8.816 95.293,8.816 95.577,7.57 94.907,7.57 95.357,5.616 97.074,8.816 98.855,8.816 99.165,7.506 
		98.392,7.506 97.313,5.509 99.165,3.861 99.73,3.861 99.92,2.676 96.756,2.676 	"/>
	<polygon fill="#DD7500" points="101.74,8.816 103.721,8.816 104.18,6.834 102.194,6.834 	"/>
	<polygon fill="#DD7500" points="103.286,2.416 102.986,5.742 103.855,5.742 105.118,2.416 105.674,0 103.843,0 	"/>
</g>
</svg>
