<?xml version="1.0" encoding="utf-8"?>
<!-- Generator: Adobe Illustrator 23.0.4, SVG Export Plug-In . SVG Version: 6.00 Build 0)  -->
<svg version="1.1" id="Ebene_1" xmlns="http://www.w3.org/2000/svg" xmlns:xlink="http://www.w3.org/1999/xlink" x="0px" y="0px"
	 viewBox="0 0 190.7 65.1" style="enable-background:new 0 0 190.7 65.1;" xml:space="preserve">
<style type="text/css">
	.st0{fill:#805326;}
	.st1{fill:#786600;}
	.st2{fill:#799AB1;}
	.st3{fill:#DD7500;}
	.st4{fill:#B70E0C;}
	.st5{fill:#BAAFA5;}
	.st6{fill:#FDFDFD;}
</style>
<g>
	<g>
		<path class="st0" d="M18,0l12.1,4.8l16.2,17l-14.1-7.5L18,0z"/>
	</g>
	<g>
		<path class="st1" d="M28.6,16.6L2.4,19.4l1.8,25.3l24-4.4L28.6,16.6z"/>
	</g>
	<g>
		<path class="st2" d="M32.1,17l14,8.1l-1.9,28.3L31.5,40.8L32.1,17z"/>
	</g>
	<g>
		<path class="st3" d="M13.5,62.3l29.1-6.8l1.8-28.9L12.5,31L13.5,62.3z"/>
	</g>
	<g>
		<path class="st4" d="M7.6,26.8L0,17.5L15,0.2l11.5,4.9L7.6,26.8z"/>
	</g>
	<g>
		<path class="st5" d="M9.3,61.3L7.8,30.4l-7.6-9.9L2,46.3L9.3,61.3z"/>
	</g>
	<g>
		<path class="st6" d="M54.2,51.8v-3.5H56v0.3c0.1,0.5,0.3,0.9,0.8,1.2c0.5,0.3,1,0.5,1.6,0.5c0.7,0,1.2-0.1,1.6-0.3
			c0.4-0.2,0.6-0.5,0.6-0.9c0-0.4-0.2-0.7-0.5-0.9s-1-0.4-1.9-0.5c-1.4-0.2-2.4-0.6-3-1.2c-0.6-0.5-0.9-1.2-0.9-2.1
			c0-0.9,0.3-1.6,1-2.2c0.7-0.6,1.5-0.9,2.6-0.9c1,0,1.8,0.2,2.5,0.6v-0.4h1.8v3.4h-1.8v-0.6C59.8,43.4,59,43,57.9,43
			c-0.5,0-1,0.1-1.3,0.3c-0.3,0.2-0.5,0.5-0.5,0.9c0,0.4,0.2,0.7,0.5,0.8c0.3,0.1,1,0.3,2,0.5c1,0.2,1.8,0.3,2.3,0.5
			c0.5,0.2,0.9,0.6,1.3,1c0.3,0.5,0.5,1.1,0.5,1.7c0,1-0.4,1.7-1.1,2.3c-0.7,0.6-1.7,0.8-2.8,0.8c-1.1,0-2-0.3-2.7-0.7v0.6H54.2z"/>
		<path class="st6" d="M64.1,46.6c0-1.6,0.5-2.9,1.6-3.9c1-1,2.3-1.5,3.8-1.5c1.5,0,2.7,0.5,3.8,1.5c1.1,1,1.6,2.3,1.6,3.9
			c0,1.6-0.5,2.9-1.6,3.9c-1.1,1-2.3,1.5-3.8,1.5c-1.5,0-2.8-0.5-3.8-1.5C64.6,49.5,64.1,48.2,64.1,46.6z M66.2,46.6
			c0,1,0.3,1.8,1,2.5c0.6,0.6,1.4,1,2.3,1c0.9,0,1.7-0.3,2.3-1c0.6-0.7,0.9-1.5,0.9-2.5c0-1-0.3-1.8-1-2.5c-0.6-0.7-1.4-1-2.3-1
			c-0.9,0-1.7,0.3-2.3,1C66.6,44.8,66.2,45.6,66.2,46.6z"/>
		<path class="st6" d="M77.8,50v-6.7h-1.5v-1.8h1.5V40c0-1.2,0.3-2.1,0.8-2.6c0.5-0.5,1.2-0.7,1.9-0.7c1.6,0,2.5,0.8,2.7,2.4
			l-1.8,0.3c-0.1-0.7-0.3-1-0.8-1c-0.3,0-0.5,0.1-0.6,0.3c-0.1,0.2-0.2,0.7-0.2,1.3v1.5h1.8v1.8h-1.8V50h2v1.8h-5.5V50L77.8,50
			L77.8,50z"/>
		<path class="st6" d="M83.8,43.3v-1.8h1.3v-1.6l2-1.8v3.4h1.9v1.8h-1.9v5c0,0.8,0,1.3,0.1,1.5c0.1,0.2,0.3,0.3,0.7,0.3
			c0.4,0,0.7-0.1,1.1-0.2v1.8c-0.5,0.2-1,0.3-1.5,0.3c-0.6,0-1.1-0.1-1.5-0.4c-0.4-0.3-0.6-0.6-0.7-1c-0.1-0.4-0.1-1.1-0.1-2.1v-5.1
			L83.8,43.3L83.8,43.3z"/>
		<path class="st6" d="M93.2,50v-6.7h-2.1v-1.8h3.7v2.3c0.2-0.6,0.5-1.1,0.9-1.5c0.4-0.4,0.8-0.7,1.3-0.8c0.5-0.1,1.1-0.2,1.8-0.2
			h0.5v2H99c-1,0-1.8,0.1-2.3,0.3c-0.5,0.2-0.9,0.6-1.1,1.1c-0.2,0.5-0.4,1.5-0.4,2.9V50h2.2v1.8h-6.3V50L93.2,50z"/>
		<path class="st6" d="M100.1,46.6c0-1.6,0.5-2.9,1.6-3.9c1-1,2.3-1.5,3.8-1.5c1.5,0,2.7,0.5,3.8,1.5c1.1,1,1.6,2.3,1.6,3.9
			c0,1.6-0.5,2.9-1.6,3.9c-1.1,1-2.3,1.5-3.8,1.5c-1.5,0-2.8-0.5-3.8-1.5C100.6,49.5,100.1,48.2,100.1,46.6z M102.2,46.6
			c0,1,0.3,1.8,1,2.5c0.6,0.6,1.4,1,2.3,1c0.9,0,1.7-0.3,2.3-1c0.6-0.7,0.9-1.5,0.9-2.5c0-1-0.3-1.8-1-2.5c-0.6-0.7-1.4-1-2.3-1
			c-0.9,0-1.7,0.3-2.3,1C102.5,44.8,102.2,45.6,102.2,46.6z"/>
		<path class="st6" d="M116.1,41.5v1.2c1.3-0.9,2.5-1.4,3.5-1.4c0.7,0,1.2,0.2,1.7,0.5c0.4,0.3,0.7,0.7,0.9,1.2
			c0.1,0.5,0.2,1.1,0.2,2v5h1.7v1.8h-3.7V45c0-0.8-0.1-1.3-0.3-1.5c-0.2-0.2-0.5-0.4-0.9-0.4c-0.9,0-1.9,0.4-3,1.3V50h1.8v1.8h-5.6
			V50h1.8v-6.7h-1.8v-1.8H116.1z"/>
		<path class="st6" d="M127.4,50v-6.7h-1.6v-1.8h3.6V50h1.6v1.8h-5.2V50H127.4z M127.1,38c0-0.3,0.1-0.6,0.3-0.9
			c0.2-0.2,0.5-0.4,0.9-0.4c0.3,0,0.6,0.1,0.9,0.4c0.2,0.2,0.4,0.5,0.4,0.9c0,0.3-0.1,0.6-0.4,0.9c-0.2,0.2-0.5,0.4-0.9,0.4
			c-0.3,0-0.6-0.1-0.9-0.4C127.2,38.6,127.1,38.3,127.1,38z"/>
		<path class="st6" d="M141.9,41.5v3.9h-1.8c-0.1-0.7-0.4-1.3-0.9-1.7c-0.5-0.4-1.1-0.6-1.8-0.6c-0.9,0-1.6,0.3-2.2,1
			c-0.6,0.6-0.8,1.5-0.8,2.5c0,1,0.3,1.8,0.8,2.6c0.5,0.7,1.3,1.1,2.3,1.1c1.4,0,2.4-0.7,3.1-2l1.7,0.8c-0.9,2-2.5,3.1-4.8,3.1
			c-1.6,0-2.9-0.6-3.8-1.7c-0.9-1.1-1.4-2.4-1.4-3.8c0-1.5,0.5-2.8,1.5-3.8c1-1,2.2-1.5,3.5-1.5c1.1,0,2.1,0.3,2.9,1v-0.7
			L141.9,41.5z"/>
	</g>
	<g>
		<path class="st6" d="M54.9,64.3v-4.7h-0.7v-0.8h2.4v0.8h-0.7v1.8h2.7v-1.8h-0.7v-0.8h2.4v0.8h-0.7v4.7h0.7v0.8h-2.4v-0.8h0.7v-2.1
			h-2.7v2.1h0.7v0.8h-2.4v-0.8L54.9,64.3L54.9,64.3z"/>
		<path class="st6" d="M65.2,64.3v0.8h-1.5v-0.5c-0.4,0.4-0.9,0.6-1.4,0.6c-0.4,0-0.7-0.1-1-0.4c-0.3-0.3-0.4-0.6-0.4-1
			c0-0.4,0.2-0.7,0.5-1c0.3-0.3,0.7-0.4,1.1-0.4c0.4,0,0.8,0.1,1.2,0.4v-0.4c0-0.2,0-0.4-0.1-0.5c0-0.1-0.1-0.2-0.3-0.3
			c-0.2-0.1-0.4-0.1-0.6-0.1c-0.4,0-0.7,0.2-0.9,0.5l-0.8-0.2c0.4-0.7,1-1,1.9-1c0.3,0,0.6,0,0.8,0.1c0.2,0.1,0.4,0.2,0.5,0.3
			c0.1,0.1,0.2,0.3,0.2,0.5c0,0.2,0.1,0.4,0.1,0.8v2H65.2z M63.6,63.5c-0.4-0.3-0.7-0.4-1.1-0.4c-0.2,0-0.4,0.1-0.6,0.2
			c-0.2,0.1-0.2,0.3-0.2,0.5c0,0.2,0.1,0.4,0.2,0.5c0.1,0.1,0.3,0.2,0.6,0.2c0.4,0,0.8-0.2,1.2-0.5L63.6,63.5z"/>
		<path class="st6" d="M70.4,64.3v0.8h-1.6v-0.5c-0.5,0.4-1,0.6-1.4,0.6c-0.3,0-0.5-0.1-0.7-0.2c-0.2-0.1-0.3-0.3-0.4-0.5
			c-0.1-0.2-0.1-0.5-0.1-1v-2h-0.6v-0.8H67v2.6c0,0.3,0,0.5,0,0.6c0,0.1,0.1,0.2,0.2,0.3c0.1,0.1,0.2,0.1,0.3,0.1
			c0.4,0,0.8-0.2,1.3-0.6v-2.3H68v-0.8h1.6v3.6L70.4,64.3L70.4,64.3z"/>
		<path class="st6" d="M70.8,65.1v-1.5h0.8v0.1c0,0.2,0.1,0.4,0.3,0.5c0.2,0.1,0.4,0.2,0.7,0.2c0.3,0,0.5,0,0.7-0.1
			c0.2-0.1,0.2-0.2,0.2-0.4c0-0.2-0.1-0.3-0.2-0.4c-0.1-0.1-0.4-0.1-0.8-0.2c-0.6-0.1-1-0.3-1.3-0.5c-0.3-0.2-0.4-0.5-0.4-0.9
			c0-0.4,0.1-0.7,0.4-0.9c0.3-0.2,0.6-0.4,1.1-0.4c0.4,0,0.8,0.1,1.1,0.3v-0.2h0.8v1.4h-0.8v-0.3c-0.2-0.4-0.6-0.5-1-0.5
			c-0.2,0-0.4,0-0.6,0.1c-0.1,0.1-0.2,0.2-0.2,0.4c0,0.2,0.1,0.3,0.2,0.3c0.1,0.1,0.4,0.1,0.9,0.2c0.4,0.1,0.7,0.1,1,0.2
			c0.2,0.1,0.4,0.2,0.5,0.4c0.1,0.2,0.2,0.4,0.2,0.7c0,0.4-0.2,0.7-0.5,1c-0.3,0.2-0.7,0.4-1.2,0.4c-0.5,0-0.8-0.1-1.1-0.3v0.2
			L70.8,65.1L70.8,65.1z"/>
		<path class="st6" d="M74.9,61.5v-0.8h0.6v-0.7l0.8-0.8v1.4h0.8v0.8h-0.8v2.1c0,0.3,0,0.5,0.1,0.6c0,0.1,0.1,0.1,0.3,0.1
			c0.2,0,0.3,0,0.5-0.1V65c-0.2,0.1-0.4,0.1-0.7,0.1c-0.3,0-0.5-0.1-0.6-0.2c-0.2-0.1-0.3-0.3-0.3-0.4c0-0.2-0.1-0.5-0.1-0.9v-2.1
			H74.9z"/>
		<path class="st6" d="M82.3,63.1h-3.6c0.1,0.4,0.2,0.7,0.5,1c0.3,0.2,0.6,0.4,1,0.4c0.6,0,1.1-0.2,1.4-0.7l0.8,0.3
			c-0.2,0.4-0.6,0.7-1,0.8c-0.4,0.2-0.8,0.3-1.2,0.3c-0.7,0-1.2-0.2-1.7-0.6c-0.5-0.4-0.7-1-0.7-1.7c0-0.7,0.2-1.2,0.7-1.6
			c0.5-0.4,1-0.6,1.6-0.6c0.6,0,1.1,0.2,1.6,0.6C82.1,61.7,82.3,62.3,82.3,63.1z M81.4,62.5c-0.1-0.3-0.2-0.6-0.5-0.8
			c-0.3-0.2-0.6-0.4-0.9-0.4c-0.3,0-0.6,0.1-0.9,0.3c-0.2,0.2-0.4,0.5-0.4,0.9L81.4,62.5L81.4,62.5z"/>
		<path class="st6" d="M87.1,60.7v1.6h-0.8c0-0.3-0.2-0.6-0.4-0.7c-0.2-0.2-0.5-0.2-0.8-0.2c-0.4,0-0.7,0.1-0.9,0.4
			c-0.2,0.3-0.4,0.6-0.4,1.1c0,0.4,0.1,0.8,0.3,1.1c0.2,0.3,0.6,0.5,1,0.5c0.6,0,1-0.3,1.3-0.9l0.7,0.3c-0.4,0.9-1.1,1.3-2,1.3
			c-0.7,0-1.2-0.2-1.6-0.7c-0.4-0.5-0.6-1-0.6-1.6c0-0.7,0.2-1.2,0.6-1.6c0.4-0.4,0.9-0.6,1.5-0.6c0.5,0,0.9,0.1,1.2,0.4v-0.3
			L87.1,60.7L87.1,60.7z"/>
		<path class="st6" d="M88.4,64.3v-4.7h-0.8v-0.8h1.6v2.4c0.5-0.4,1-0.6,1.5-0.6c0.3,0,0.5,0.1,0.7,0.2c0.2,0.1,0.3,0.3,0.4,0.5
			c0.1,0.2,0.1,0.5,0.1,0.9v2.2h0.7v0.8H91v-2.6c0-0.3,0-0.5,0-0.7c0-0.1-0.1-0.2-0.2-0.3c-0.1-0.1-0.2-0.1-0.3-0.1
			c-0.3,0-0.7,0.2-1.3,0.6v2.4H90v0.8h-2.4v-0.8L88.4,64.3L88.4,64.3z"/>
		<path class="st6" d="M94.5,60.7v0.5c0.5-0.4,1-0.6,1.5-0.6c0.3,0,0.5,0.1,0.7,0.2c0.2,0.1,0.3,0.3,0.4,0.5
			c0.1,0.2,0.1,0.5,0.1,0.8v2.1h0.7v0.8h-1.6v-2.8c0-0.3,0-0.5-0.1-0.6c-0.1-0.1-0.2-0.1-0.4-0.1c-0.4,0-0.8,0.2-1.3,0.5v2.3h0.7
			v0.8h-2.4v-0.8h0.8v-2.8h-0.8v-0.8L94.5,60.7L94.5,60.7L94.5,60.7z"/>
		<path class="st6" d="M98.9,64.3v-2.8h-0.7v-0.8h1.5v3.6h0.7v0.8h-2.2v-0.8H98.9z M98.8,59.3c0-0.1,0-0.3,0.1-0.4
			c0.1-0.1,0.2-0.2,0.4-0.2c0.1,0,0.3,0,0.4,0.1c0.1,0.1,0.2,0.2,0.2,0.4c0,0.1-0.1,0.3-0.2,0.4c-0.1,0.1-0.2,0.1-0.4,0.1
			c-0.1,0-0.3-0.1-0.4-0.2C98.8,59.5,98.8,59.4,98.8,59.3z"/>
		<path class="st6" d="M101.6,64.3v-4.7h-0.8v-0.8h1.6v3.9l1.6-1.3h-0.7v-0.7h2.4v0.7h-0.7l-1.6,1.4l1.5,1.5h0.8v0.8h-1.1l-2.2-2.2
			v1.4h0.7v0.8h-2.4v-0.8L101.6,64.3L101.6,64.3z"/>
		<path class="st6" d="M113.2,64.3v0.8h-1.6v-0.5c-0.5,0.4-1,0.6-1.4,0.6c-0.3,0-0.5-0.1-0.7-0.2c-0.2-0.1-0.3-0.3-0.4-0.5
			c-0.1-0.2-0.1-0.5-0.1-1v-2h-0.6v-0.8h1.5v2.6c0,0.3,0,0.5,0,0.6c0,0.1,0.1,0.2,0.2,0.3c0.1,0.1,0.2,0.1,0.3,0.1
			c0.4,0,0.8-0.2,1.3-0.6v-2.3h-0.8v-0.8h1.6v3.6L113.2,64.3L113.2,64.3z"/>
		<path class="st6" d="M115.2,60.7v0.5c0.5-0.4,1-0.6,1.5-0.6c0.3,0,0.5,0.1,0.7,0.2c0.2,0.1,0.3,0.3,0.4,0.5
			c0.1,0.2,0.1,0.5,0.1,0.8v2.1h0.7v0.8h-1.6v-2.8c0-0.3,0-0.5-0.1-0.6c-0.1-0.1-0.2-0.1-0.4-0.1c-0.4,0-0.8,0.2-1.3,0.5v2.3h0.7
			v0.8h-2.4v-0.8h0.8v-2.8h-0.8v-0.8L115.2,60.7L115.2,60.7z"/>
		<path class="st6" d="M124.3,64.3v0.8h-1.6v-0.6c-0.4,0.5-0.9,0.7-1.5,0.7c-0.6,0-1.1-0.2-1.5-0.6c-0.4-0.4-0.6-0.9-0.6-1.6
			c0-0.7,0.2-1.3,0.7-1.7c0.4-0.4,0.9-0.6,1.5-0.6c0.6,0,1.1,0.2,1.5,0.7v-1.7h-0.8v-0.8h1.7v5.5L124.3,64.3L124.3,64.3z
			 M119.9,62.9c0,0.5,0.1,0.8,0.4,1.1c0.3,0.3,0.6,0.4,1,0.4c0.4,0,0.7-0.1,1-0.4c0.3-0.3,0.4-0.6,0.4-1.1c0-0.5-0.1-0.8-0.4-1.1
			c-0.3-0.2-0.6-0.4-1-0.4c-0.4,0-0.7,0.1-1,0.4C120,62.1,119.9,62.5,119.9,62.9z"/>
		<path class="st6" d="M127.5,64.3v-4.7h-0.7v-0.8h2.4v0.8h-0.7v1.8h2.7v-1.8h-0.7v-0.8h2.4v0.8h-0.7v4.7h0.7v0.8h-2.4v-0.8h0.7
			v-2.1h-2.7v2.1h0.7v0.8h-2.4v-0.8L127.5,64.3L127.5,64.3z"/>
		<path class="st6" d="M133.4,62.9c0-0.7,0.2-1.2,0.7-1.6c0.4-0.4,1-0.6,1.6-0.6c0.6,0,1.2,0.2,1.6,0.6c0.4,0.4,0.7,1,0.7,1.7
			c0,0.7-0.2,1.2-0.7,1.7c-0.4,0.4-1,0.6-1.6,0.6c-0.6,0-1.2-0.2-1.6-0.6C133.6,64.1,133.4,63.6,133.4,62.9z M134.3,62.9
			c0,0.4,0.1,0.8,0.4,1.1c0.3,0.3,0.6,0.4,1,0.4c0.4,0,0.7-0.1,1-0.4c0.3-0.3,0.4-0.6,0.4-1c0-0.4-0.1-0.8-0.4-1.1
			c-0.3-0.3-0.6-0.4-1-0.4c-0.4,0-0.7,0.1-1,0.4C134.4,62.1,134.3,62.5,134.3,62.9z"/>
		<path class="st6" d="M139.3,64.3v-4.7h-0.8v-0.8h1.6v5.5h0.7v0.8h-2.3v-0.8H139.3z"/>
		<path class="st6" d="M141.1,65.1v-0.7l2.7-2.9h-1.8v0.8h-0.7v-1.5h3.5v0.8l-2.7,2.9h2v-0.9h0.7v1.6H141.1z"/>
		<path class="st6" d="M145.3,65.1v-0.8h0.8v-4.7h-0.8v-0.8h1.6v2.5c0.4-0.5,0.9-0.7,1.6-0.7c0.6,0,1.1,0.2,1.5,0.6
			c0.4,0.4,0.6,1,0.6,1.6c0,0.6-0.2,1.2-0.6,1.6c-0.4,0.4-0.9,0.7-1.5,0.7c-0.3,0-0.7-0.1-0.9-0.2c-0.3-0.1-0.5-0.3-0.6-0.5v0.6
			L145.3,65.1L145.3,65.1z M147,62.9c0,0.5,0.1,0.8,0.4,1.1c0.3,0.3,0.6,0.4,1,0.4c0.4,0,0.7-0.1,1-0.4c0.3-0.3,0.4-0.7,0.4-1.1
			c0-0.5-0.1-0.8-0.4-1.1c-0.3-0.3-0.6-0.4-1-0.4c-0.4,0-0.7,0.1-1,0.4C147.1,62,147,62.4,147,62.9z"/>
		<path class="st6" d="M155.8,64.3v0.8h-1.5v-0.5c-0.4,0.4-0.9,0.6-1.4,0.6c-0.4,0-0.7-0.1-1-0.4c-0.3-0.3-0.4-0.6-0.4-1
			c0-0.4,0.2-0.7,0.5-1c0.3-0.3,0.7-0.4,1.1-0.4c0.4,0,0.8,0.1,1.2,0.4v-0.4c0-0.2,0-0.4-0.1-0.5c0-0.1-0.1-0.2-0.3-0.3
			c-0.1-0.1-0.4-0.1-0.6-0.1c-0.4,0-0.7,0.2-0.9,0.5l-0.8-0.2c0.4-0.7,1-1,1.9-1c0.3,0,0.6,0,0.8,0.1c0.2,0.1,0.4,0.2,0.5,0.3
			c0.1,0.1,0.2,0.3,0.2,0.5c0,0.2,0.1,0.4,0.1,0.8v2H155.8z M154.2,63.5c-0.4-0.3-0.7-0.4-1.1-0.4c-0.2,0-0.4,0.1-0.6,0.2
			c-0.2,0.1-0.2,0.3-0.2,0.5c0,0.2,0.1,0.4,0.2,0.5c0.1,0.1,0.3,0.2,0.6,0.2c0.4,0,0.8-0.2,1.2-0.5V63.5z"/>
		<path class="st6" d="M160.9,64.3v0.8h-1.6v-0.5c-0.5,0.4-1,0.6-1.4,0.6c-0.3,0-0.5-0.1-0.7-0.2c-0.2-0.1-0.3-0.3-0.4-0.5
			c-0.1-0.2-0.1-0.5-0.1-1v-2h-0.6v-0.8h1.5v2.6c0,0.3,0,0.5,0,0.6c0,0.1,0.1,0.2,0.2,0.3c0.1,0.1,0.2,0.1,0.3,0.1
			c0.4,0,0.8-0.2,1.3-0.6v-2.3h-0.8v-0.8h1.6v3.6L160.9,64.3L160.9,64.3z"/>
		<path class="st6" d="M168,62.1h2.3c0,0.1,0,0.2,0,0.2c0,0.9-0.3,1.6-0.9,2.1c-0.6,0.5-1.3,0.8-2.3,0.8c-1.1,0-2-0.3-2.5-1
			c-0.6-0.6-0.8-1.4-0.8-2.3c0-0.9,0.3-1.7,0.8-2.3c0.6-0.6,1.3-0.9,2.3-0.9c0.9,0,1.6,0.3,2.2,0.8v-0.7h0.8v2h-0.8
			c-0.1-0.3-0.4-0.6-0.8-0.9c-0.4-0.3-0.8-0.4-1.3-0.4c-0.7,0-1.2,0.2-1.6,0.7c-0.4,0.5-0.6,1-0.6,1.7c0,0.7,0.2,1.3,0.7,1.8
			c0.4,0.4,1,0.7,1.6,0.7c0.5,0,0.9-0.1,1.3-0.4c0.4-0.3,0.6-0.6,0.7-1.1H168L168,62.1L168,62.1z"/>
		<path class="st6" d="M171.7,64.3v-2.8H171v-0.8h1.6v0.5c0.5-0.4,1-0.6,1.5-0.6c0.5,0,0.8,0.2,1,0.7c0.6-0.4,1.1-0.7,1.6-0.7
			c0.3,0,0.5,0.1,0.7,0.2c0.2,0.1,0.3,0.3,0.4,0.5c0.1,0.2,0.1,0.5,0.1,0.8v2.1h0.8v0.8h-1.6v-2.8c0-0.3,0-0.4,0-0.5
			c0-0.1-0.1-0.2-0.2-0.3c-0.1-0.1-0.2-0.1-0.3-0.1c-0.4,0-0.8,0.2-1.2,0.6v2.3h0.7v0.8h-1.6v-2.8c0-0.3,0-0.5-0.1-0.6
			c-0.1-0.1-0.2-0.2-0.4-0.2c-0.3,0-0.7,0.2-1.2,0.6v2.3h0.8v0.8h-2.4v-0.8L171.7,64.3L171.7,64.3z"/>
		<path class="st6" d="M178.8,65.1v-0.8h0.8v-4.7h-0.8v-0.8h1.6v2.5c0.4-0.5,0.9-0.7,1.6-0.7c0.6,0,1.1,0.2,1.5,0.6
			c0.4,0.4,0.6,1,0.6,1.6c0,0.6-0.2,1.2-0.6,1.6c-0.4,0.4-0.9,0.7-1.5,0.7c-0.3,0-0.7-0.1-0.9-0.2c-0.3-0.1-0.5-0.3-0.6-0.5v0.6
			L178.8,65.1L178.8,65.1z M180.5,62.9c0,0.5,0.1,0.8,0.4,1.1c0.3,0.3,0.6,0.4,1,0.4c0.4,0,0.7-0.1,1-0.4c0.3-0.3,0.4-0.7,0.4-1.1
			c0-0.5-0.1-0.8-0.4-1.1c-0.3-0.3-0.6-0.4-1-0.4c-0.4,0-0.7,0.1-1,0.4C180.6,62,180.5,62.4,180.5,62.9z"/>
		<path class="st6" d="M185.5,64.3v-4.7h-0.7v-0.8h2.4v0.8h-0.7v1.8h2.7v-1.8h-0.7v-0.8h2.4v0.8H190v4.7h0.7v0.8h-2.4v-0.8h0.7v-2.1
			h-2.7v2.1h0.7v0.8h-2.4v-0.8L185.5,64.3L185.5,64.3z"/>
	</g>
</g>
</svg>
