<?xml version="1.0" encoding="utf-8"?>
<!-- Generator: Adobe Illustrator 23.0.4, SVG Export Plug-In . SVG Version: 6.00 Build 0)  -->
<svg version="1.1" id="Ebene_1" xmlns="http://www.w3.org/2000/svg" xmlns:xlink="http://www.w3.org/1999/xlink" x="0px" y="0px"
	 viewBox="0 0 46.3 65.1" style="enable-background:new 0 0 46.3 65.1;" xml:space="preserve">
<style type="text/css">
	.st0{fill:#805326;}
	.st1{fill:#786600;}
	.st2{fill:#799AB1;}
	.st3{fill:#DD7500;}
	.st4{fill:#B70E0C;}
	.st5{fill:#BAAFA5;}
</style>
<g>
	<path class="st0" d="M18,0l12.1,4.8l16.2,17l-14.1-7.5L18,0z"/>
</g>
<g>
	<path class="st1" d="M28.6,16.6L2.4,19.4l1.8,25.3l24-4.4L28.6,16.6z"/>
</g>
<g>
	<path class="st2" d="M32.1,17l14,8.1l-1.9,28.3L31.5,40.8L32.1,17z"/>
</g>
<g>
	<path class="st3" d="M13.5,62.3l29.1-6.8l1.8-28.9L12.5,31L13.5,62.3z"/>
</g>
<g>
	<path class="st4" d="M7.6,26.8L0,17.5L15,0.2l11.5,4.9L7.6,26.8z"/>
</g>
<g>
	<path class="st5" d="M9.3,61.3L7.8,30.4l-7.6-9.9L2,46.3L9.3,61.3z"/>
</g>
</svg>
